<?xml version="1.0" standalone="no"?>
<!DOCTYPE svg PUBLIC "-//W3C//DTD SVG 20010904//EN"
 "http://www.w3.org/TR/2001/REC-SVG-20010904/DTD/svg10.dtd">
<svg version="1.0" xmlns="http://www.w3.org/2000/svg"
 width="512.000000pt" height="512.000000pt" viewBox="0 0 512.000000 512.000000"
 preserveAspectRatio="xMidYMid meet">
<metadata>
Created by potrace 1.16, written by Peter Selinger 2001-2019
</metadata>
<g transform="translate(0.000000,512.000000) scale(0.100000,-0.100000)"
fill="#000000" stroke="none">
<path d="M2439 5093 c-60 -31 -112 -92 -129 -151 -6 -24 -10 -392 -10 -1079
l0 -1043 -1042 0 c-688 0 -1056 -4 -1080 -10 -148 -41 -223 -227 -150 -371 30
-60 91 -112 150 -129 24 -6 392 -10 1080 -10 l1042 0 0 -1042 c0 -688 4 -1056
10 -1080 41 -148 227 -223 371 -150 60 30 112 91 129 150 6 24 10 392 10 1080
l0 1042 1043 0 c687 0 1055 4 1079 10 59 17 120 69 151 129 72 144 -3 330
-151 371 -24 6 -392 10 -1079 10 l-1043 0 0 1043 c0 687 -4 1055 -10 1079 -29
104 -134 178 -250 178 -53 0 -78 -6 -121 -27z"/>
</g>
</svg>
