<?xml version="1.0" standalone="no"?>
<!DOCTYPE svg PUBLIC "-//W3C//DTD SVG 20010904//EN"
 "http://www.w3.org/TR/2001/REC-SVG-20010904/DTD/svg10.dtd">
<svg version="1.0" xmlns="http://www.w3.org/2000/svg"
 width="128.000000pt" height="128.000000pt" viewBox="0 0 128.000000 128.000000"
 preserveAspectRatio="xMidYMid meet">
<metadata>
Created by potrace 1.16, written by Peter Selinger 2001-2019
</metadata>
<g transform="translate(0.000000,128.000000) scale(0.100000,-0.100000)"
fill="#000000" stroke="none">
<path d="M1103 1161 c-78 -38 -82 -39 -120 -26 -168 60 -355 -72 -371 -261 -5
-68 3 -65 -92 -42 -113 28 -241 123 -315 233 -42 64 -49 69 -79 61 -51 -13
-87 -170 -56 -250 9 -23 7 -25 -28 -28 -32 -3 -37 -7 -40 -30 -8 -69 44 -162
127 -225 30 -24 37 -33 24 -33 -25 0 -43 -19 -43 -45 0 -38 92 -107 188 -141
29 -10 52 -22 52 -25 0 -4 -24 -17 -52 -29 -38 -17 -78 -24 -138 -27 -111 -5
-127 -9 -135 -33 -18 -55 80 -111 275 -157 106 -25 359 -25 450 1 102 28 185
72 251 133 159 147 240 345 226 548 -5 76 -4 84 23 130 47 80 35 121 -34 113
l-34 -4 29 58 c41 82 37 118 -15 118 -7 0 -48 -18 -93 -39z"/>
</g>
</svg>
